<svg class="icon" width="200" height="200" viewBox="0 0 1024 1024" xmlns="http://www.w3.org/2000/svg"><path d="M512.268 599.398c19.308 0 36.787-7.826 49.44-20.478l342.487-342.486c-1.753-.918-3.605-1.655-5.502-2.29-.838-.27-1.656-.577-2.52-.783-.74-.186-1.501-.31-2.259-.448-1.906-.321-3.834-.587-5.833-.587H136.455c-1.997 0-3.926.266-5.833.587-.758.138-1.52.26-2.259.448-.864.206-1.682.513-2.518.782-1.898.636-3.75 1.373-5.503 2.29L462.83 578.92c12.652 12.652 30.132 20.478 49.44 20.478zM101.52 267.052c0 .08-.023.153-.023.233v489.43c0 .467.118.9.137 1.363L347.09 512.62l-245.57-245.57zM586.428 603.64c-18.978 18.98-45.198 30.717-74.16 30.717s-55.18-11.738-74.16-30.717L371.81 537.34 121.147 788.005a36.82 36.82 0 0 0 6.974 2.56c.156.038.3.105.459.142 2.525.617 5.154.968 7.876.968H888.08c2.723 0 5.351-.35 7.877-.968.158-.037.302-.104.459-.143a36.784 36.784 0 0 0 6.972-2.56L652.726 537.342l-66.298 66.299zm336.588-336.588-245.57 245.57 245.457 245.456c.018-.462.137-.896.137-1.363v-489.43c0-.08-.023-.153-.024-.233z" fill="#FFF"/><path d="M311.252 337.203h139.837v-17.48H311.252v17.48zm0-52.438v17.48h192.275v-17.48H311.252z" fill="#EE6A56"/><path d="M888.08 197.366H136.455c-38.615 0-69.918 31.304-69.918 69.92v489.429c0 38.615 31.304 69.919 69.918 69.919H888.08c38.615 0 69.918-31.304 69.918-69.92V267.286c.001-38.615-31.303-69.919-69.918-69.919zm-751.625 34.96H888.08a34.786 34.786 0 0 1 16.226 3.995l-342.598 342.6c-12.654 12.652-30.133 20.477-49.44 20.477s-36.788-7.826-49.441-20.478L120.23 236.32a34.802 34.802 0 0 1 16.225-3.994zm-34.958 34.96c0-.085.006-.168.006-.252L347.09 512.621 101.534 758.178c-.02-.485-.037-.973-.037-1.463v-489.43zM888.08 791.673H136.455a34.81 34.81 0 0 1-15.404-3.574L371.81 537.34l66.298 66.299c18.979 18.98 45.199 30.717 74.16 30.717s55.18-11.738 74.16-30.717l66.299-66.299L903.486 788.1a34.804 34.804 0 0 1-15.406 3.574zm34.96-34.96c0 .491-.018.978-.037 1.464L677.447 512.62l245.587-245.587c0 .084.006.167.006.251v489.43z"/></svg>