<svg class="icon" width="200" height="200" viewBox="0 0 1024 1024" xmlns="http://www.w3.org/2000/svg"><path fill="#333" d="M779.995 65.289H243.983c-98.713 0-178.692 80.088-178.692 178.715v536.013c0 98.713 79.98 178.693 178.692 178.693h536.013c98.713 0 178.713-79.98 178.713-178.693V244.004c0-98.627-80-178.715-178.714-178.715zm89.292 670.06c0 74.002-59.958 133.96-133.96 133.96H288.63c-73.98 0-133.937-59.958-133.937-133.96V288.65c0-74.001 59.957-133.937 133.937-133.937h446.699c74.001 0 133.959 59.935 133.959 133.937v446.7zM467.343 489.72c0 61.637-50.056 111.584-111.691 111.584-61.722 0-111.669-49.947-111.669-111.583 0-61.722 49.947-111.669 111.669-111.669 61.635 0 111.691 49.947 111.691 111.669zm312.652 0c0 61.637-49.946 111.584-111.692 111.584-61.614 0-111.668-49.947-111.668-111.583 0-61.722 50.054-111.669 111.668-111.669 61.747 0 111.692 49.947 111.692 111.669z"/></svg>