<svg class="icon" width="200" height="199.42" viewBox="0 0 1027 1024" xmlns="http://www.w3.org/2000/svg"><path fill="#333" d="M261.44 508.8h404.928c-4.48 101.888-37.632 184.384-99.328 247.68-61.696 63.104-139.904 94.72-234.56 94.72-49.088 0-94.4-9.472-135.872-28.224-41.536-18.88-78.72-46.72-111.68-83.84-27.904-30.784-49.024-65.792-63.36-105.152C7.168 594.816 0 552.768 0 507.968c0-45.632 8.704-88.96 26.112-129.92 17.344-40.96 42.816-77.888 76.352-110.72 31.744-31.68 67.264-55.36 106.624-70.976 39.104-15.68 82.688-23.552 130.688-23.552 66.112 0 124.16 15.424 174.08 46.4 49.856 30.912 87.488 74.944 113.088 131.968H510.4c-21.568-27.84-47.36-48.704-77.312-62.72-30.08-14.08-63.616-21.12-100.48-21.12-30.912 0-60.288 5.76-88.192 17.408-27.904 11.712-52.672 28.608-74.24 50.688-22.528 23.04-40.128 49.728-52.672 80.256-12.672 30.464-18.88 61.504-18.88 93.12 0 34.048 5.632 66.304 17.088 96.64 11.392 30.336 27.776 56.512 48.96 78.656 22.464 23.296 48.512 41.344 77.888 54.208 29.376 12.864 59.328 19.264 89.92 19.264 49.792 0 93.696-13.184 131.84-39.616 38.016-26.368 69.376-65.472 94.016-117.12H261.44V508.8zm597.568 145.728V536.256H741.632v-49.472h117.376V369.408h50.048v117.376h117.44v49.472h-117.44v118.272Z"/></svg>