<svg class="icon" width="200" height="200" viewBox="0 0 1024 1024" xmlns="http://www.w3.org/2000/svg"><path fill="#333" d="M658.272 512q0-60.576-42.848-103.424T512 365.728t-103.424 42.848T365.728 512t42.848 103.424T512 658.272t103.424-42.848T658.272 512zm78.848 0q0 93.728-65.728 159.424t-159.424 65.728-159.424-65.728T286.816 512t65.728-159.424 159.424-65.728 159.424 65.728T737.12 512zm61.728-234.272q0 21.728-15.424 37.152t-37.152 15.424-37.152-15.424-15.424-37.152 15.424-37.152 37.152-15.424 37.152 15.424 15.424 37.152zM511.968 152q-4 0-43.712-.288t-60.288 0-55.136 1.728-58.848 5.728-40.864 10.56q-28.576 11.424-50.272 33.152t-33.152 50.272q-6.272 16.576-10.56 40.864t-5.728 58.848T151.68 408t0 60.288.288 43.712-.288 43.712 0 60.288 1.728 55.136 5.728 58.848 10.56 40.864q11.424 28.576 33.152 50.272t50.272 33.152q16.576 6.272 40.864 10.56t58.848 5.728 55.136 1.728 60.288 0 43.712-.288 43.712.288 60.288 0 55.136-1.728 58.848-5.728 40.864-10.56q28.576-11.424 50.272-33.152t33.152-50.272q6.272-16.576 10.56-40.864t5.728-58.848T872.256 616t0-60.288-.288-43.712.288-43.712 0-60.288-1.728-55.136-5.728-58.848-10.56-40.864q-11.424-28.576-33.152-50.272t-50.272-33.152q-16.576-6.272-40.864-10.56t-58.848-5.728-55.136-1.728-60.288 0-43.712.288zm438.88 360q0 130.848-2.848 181.152-5.728 118.848-70.848 184t-184 70.848Q642.88 950.848 512 950.848T330.848 948q-118.848-5.728-184-70.848T76 693.152Q73.152 642.88 73.152 512T76 330.848q5.728-118.848 70.848-184t184-70.848Q381.12 73.152 512 73.152T693.152 76q118.848 5.728 184 70.848t70.848 184q2.848 50.272 2.848 181.152z"/></svg>