<svg xmlns="http://www.w3.org/2000/svg"><defs><font id="iconfont" horiz-adv-x="1024"><font-face font-family="iconfont" font-weight="500" units-per-em="1024" panose-1="2 0 6 3 0 0 0 0 0 0" ascent="896" descent="-128" x-height="792" bbox="18 -94 1005.61 864" underline-thickness="0" underline-position="0" unicode-range="U+0078-E8A7"/><glyph glyph-name=".notdef"/><glyph glyph-name=".notdef"/><glyph glyph-name=".null" horiz-adv-x="0"/><glyph glyph-name="nonmarkingreturn" horiz-adv-x="341"/><glyph glyph-name="x" unicode="x" horiz-adv-x="1001" d="M281 543q-27-1-53-1h-83q-18 0-36.5-6T76 517.5t-23-32-9-45.5v-76h912v41q0 16-.5 30t-.5 18q0 13-5 29t-17 29.5-31.5 22.5-49.5 9H719v-97H281v97zm674-233v-52q0-23 .5-52t.5-58-10.5-47.5-26-30-33-16T855 50q-14-1-29.5-.5T796 50h-32l-45 128H280L236 50h-63q-20 0-45 1-25 0-41 9.5t-25.5 23T48 113t-4 30v167h911zm-792-63q-12 0-21-8.5t-9-21.5 9-21.5 21-8.5q13 0 22 8.5t9 21.5-9 21.5-22 8.5zm153-124q-8-26-14-48-5-19-10.5-37T284 13t-3-15 1-14.5 9.5-10.5 21.5-4h365q23 0 34 12t2 38q-5 13-9.5 30.5T695 84q-5 19-11 39H316zm20 375v228q0 11 2.5 23t10 21.5T369 786t34 6h188q31 0 51.5-14.5T663 725V498H336z"/><glyph glyph-name="douban" unicode="" horiz-adv-x="1000" d="M86 825h831v-93H86v93zm759-557v366H158V268h687zM258 540h488V361H258v179zM696 56q46 70 85 160l-100 36q-39-107-91-196H416q-44 116-98 196l-92-36q57-85 92-160H62v-92h879v92H696z"/><glyph glyph-name="facebook" unicode="" d="M721 834V689q-12 1-30.5 1.5T636 684t-48-25q-7-10-8-31.5t0-55.5 1-48h141q-23-107-29-140H580V-66H384v448h-84v142h83v15q2 49 4 74.5t7.5 63 17 62.5 28.5 43q10 10 19 17.5t21.5 13 20.5 9 25.5 6 26.5 4 34 2 37 .5h97z"/><glyph glyph-name="twitter" unicode="" d="M672 758q49 1 81.5-13.5T817 701q38 3 94 31 18 10 23 13-21-57-59-86-17-13-20-15 17 0 34.5 4.5t39.5 13 29 10.5v-1q-27-43-62-71-5-4-14.5-11.5T868 577q0-75-9-118-35-155-125.5-258T499 54q-54-17-125.5-21T240 43q-63 16-108 35-28 12-52 27-10 6-16 10l28-2.5 30 .5q8 1 26 2t27 3q67 15 110 40 3 2 12 7t14.5 8 12.5 8 11 10q-26-1-55 9-82 29-116 118 68-8 82 3-24 2-61 25-86 54-86 157 6-3 19-9t38-11q20-4 25-2-5 5-17 14t-17 15q-64 80-41 167 5 22 19 48 1 0 1-.5v-.5q2-4 9-11l8-8q21-26 55-52 52-41 103-66t121-43q43-10 82-10-5 19-4.5 43t5.5 43q25 89 104 123 17 7 41 12 8 1 22 3z"/><glyph glyph-name="clock" unicode="" d="M512.5 823q-89.5 0-171-35t-140-94T108 553.5 73 383t35-170.5T201.5 72t140-93.5 171-34.5 171 34.5 140 93.5T917 212.5 952 383t-35 170.5T823.5 694t-140 94-171 35zM509 27q-96 0-178 47.5T201.5 204 154 382.5t47.5 178 129.5 129T509 737t178-47.5 129.5-129 47.5-178T816.5 204 687 74.5 509 27zm102 335H511v170q0 14-10 23.5t-24 9.5-23.5-9.5T444 532V328q0-14 9.5-23.5T477 295h134q14 0 24 9.5t10 23.5-10 24-24 10z"/><glyph glyph-name="home" unicode="" d="M662 498q-26 24-45 42l-34 31q-13 13-16 15-25 24-56 22.5T458 586q-4-3-18-16-13-13-34-32-17-15-46-41-24-23-50-47-55-50-133-121V-18q0-22 15.5-33.5T234-63h175V95q0 36 25.5 62t61.5 26h33q36 0 61.5-26T616 95V-57q0-3-1-6h176q25 1 40 16t15 35v339q-74 69-134 124-26 24-51 47h1zm298-81q-1 22-20 40l-22 22q-17 17-42 40.5T821 573q-29 29-61 59.5T699 692q-36 35-55 53-25 24-42 41-17 16-22 21-28 27-67 26.5T440 800q-5-5-32-30-31-29-65-62-40-37-82-77-26-24-83-77-36-34-66-61-27-26-33-32-14-13-15-36t17-39q16-14 38.5-13.5T155 384q4 4 26 24 22 19 53 49 30 29 66 61 36 34 67 64 32 30 57 53 24 23 34 31 26 24 54 25t56-25q6-5 30-28 23-22 55-52 35-34 68-65 39-37 68-65 36-34 55-51 22-22 27-25 13-12 35.5-13t39.5 15q15 14 14 35zm0 0z"/><glyph glyph-name="weibo" unicode="" d="m730 404 15 35q29 92-54 107-67 12-205-33 34 29 33 73t-30 65q-30 19-69 18.5T336 647t-90-54.5-86-76.5-72.5-89.5-50.5-93T18 247q0-44 24.5-89t71-84T240 10t180-25q101 0 183 21t132.5 53 85 71.5 48 75T882 271q0 37-15.5 64t-38 39.5-44.5 20-38 8.5zM432 35Q309 23 216.5 74t-100 134.5T190 359t204 78.5T609.5 398 710 263.5 636.5 113 432 35zm-58 322q-67-11-107-59.5T236.5 192t63.5-89.5 120.5-21 107 60T558 247t-63.5 89T374 357zm-15.5-217q-21.5-6-40.5 4t-24.5 29.5 6 37.5 33 24 40.5-3.5 24.5-29.5-6-38-33-24zm74.5 85q-11 0-19 7.5t-8 18.5 8 19 19 8 19-8 8-19-8-18.5-19-7.5zm518 463q-45 57-113.5 80.5T685 780q-14-2-23-13.5t-7-25.5 13.5-22.5T695 712q134 19 201-66 30-39 38-89t-10-93q-5-13 .5-26t18.5-19q7-2 13-2 24 0 32 21 25 60 14.5 129T951 688zm-233-34q-14-2-22.5-13.5T689 615t13.5-22.5T728 586q49 7 72-22 10-13 12.5-30t-3.5-32q-5-13 .5-26t18.5-19q7-2 13-2 24 0 33 21 12 32 7 67.5T854 606q-47 61-136 48z"/><glyph glyph-name="zhihu" unicode="" d="M352 334h193q0 20-5.5 38T529 398l-6 7H356q4 91 9 227h159q-1 68-19 68H225q17 88 40 127-4 0-9.5-.5T234 821t-30-15-28.5-32.5T153 720q-10-39-23.5-75.5t-24-57.5-19-38.5T77 529q-3-8 11-7t26 7q1 0 3 1 66 30 81 102h87q4-198 3-227H110q-11-8-19.5-26T79 347l-3-13h204q-18-119-44-168-4-7-15.5-29T203 105t-20-31-28-36.5-37-38T66-46l-3-6q2-7 44-3 53 4 91 24.5T263 44q34 68 59 147v-1L490-3q1 2 2 6l4 16 4.5 24 .5 29.5-6 33.5-124 139-42-31q19 67 23 117v3zm233 380V45h70l29-80 122 80h154v669H585zm302-597h-80l-99-66-24 66h-25v522h228V117z"/><glyph glyph-name="calendar" unicode="" d="M369 96h57v279h-45q-3-16-10-26.5T352 331q-10-7-24-9-14-3-29-2v-43h70V96zm257 57.5q-6-7.5-15-11.5-9-5-20-5-20 0-32 11.5T545 179h-57q1-22 9-38 9-17 23-28t32.5-16.5T592 91q20 0 40 7 18 7 32.5 21t22.5 32.5 8 39.5q0 20-5 37-6 17-17 30t-27 20.5-37 7.5q-16 0-30-5-12-5-24-17l-1 1 11 63h115v47H525l-28-154h51q9 12 18.5 17t24.5 5q11 0 19.5-4t15.5-11q6-7 9.5-16.5T639 191t-3.5-20.5-9.5-17zM247 638h66q7 0 12.5 5.5T331 656v145q0 7-5.5 12.5T313 819h-66q-8 0-13-5.5t-5-12.5V656q0-7 5-12.5t13-5.5zm464 0h66q8 0 13 5.5t5 12.5v145q0 7-5 12.5t-13 5.5h-66q-7 0-12.5-5.5T693 801V656q0-7 5.5-12.5T711 638zm144 112h-23v-94q0-23-16-38.5T777 602h-66q-22 0-38 15.5T657 656v94H367v-94q0-23-16-38.5T313 602h-66q-23 0-39 15.5T192 656v94h-23q-43 0-74-31t-31-74V54q0-44 31-74.5T169-51h686q43 0 74 30.5T960 54v591q0 43-31 74t-74 31zm38-696q0-16-11-27.5T855 15H169q-16 0-27 11.5T131 54v396h762V54z"/><glyph glyph-name="author" unicode="" d="M189-33q0-14-10-24t-24.5-10T130-57t-10 25q0 85 62 145 34 32 79 50.5t81 21.5q13 2 21 9 5 5 6 11-33 28-60 96-11 27-14 31l-1 1h-1q-31 29-45 67-19 50 2 88-13 40-13 84-1 58 18 111l1 3q24 71 82 110 55 38 141 40 49 0 75-5 54-9 77-42 51 4 94-47 21-25 37-59t20-58q5-33 0-72-4-29-13-61 25-39 6-91-15-41-46-68l-1-1q-4-3-15-31-26-67-59-94 1-7 7-13 8-7 21-9 37-3 81.5-21.5T842 113q62-60 62-146 0-14-10-24t-25-10q-14 0-24 10t-10 25q0 55-41 95-25 24-58.5 37.5T676 116q-39 4-64 29-11 10-19.5 31t-8 44.5T601 254q26 15 47 72 18 44 34 58 19 17 28 41 9 22-3 34h1q-7 8-9.5 20t.5 21q11 35 15 62 3 31-1 53-2 16-13.5 40T672 698q-21 24-35 22-19-3-35 5-15 7-24 20l-3 3q-7 11-33 15-22 4-61 3-65-1-105-28-37-25-55-75l-1-2q-14-44-14-88 1-42 14-72 6-11 3-23-1-8-6.5-17t-7-14 2.5-22q9-23 28-40l1-2q15-14 32-57 24-58 48-73 18-9 18-30 0-51-27-78-25-25-64-29-27-2-60-15.5T230 63q-41-39-41-96z"/><glyph glyph-name="wechat" unicode="" d="M309 777q-69-13-125.5-46.5T92 652t-51.5-99.5-10-107 38-103T155 256q10-6 9-13.5T149 194l-16-48 115 61 31-7q54-14 100-14h16l-6 22q-16 60 2 120.5T452 434t108.5 73.5T700 536h27l-5 19q-22 76-85 133t-150.5 81-177.5 8zm-25-144q23-16 24-43t-21-41q-17-11-35.5-8.5T222 555t-14.5 29 8.5 35q11 15 32 19.5t36-5.5zm243 0q17-12 21-31t-3.5-34.5T520 544t-37-1q-30 12-32.5 44t25.5 47q11 6 26 5.5t25-6.5zm109-122q-106-20-171.5-92T403 255q3-61 37.5-113T529 59.5t122.5-42T789 27l22 6 46-25q46-25 48-23 1 3-11 40-11 34-10.5 40T898 81q54 39 78 91t18.5 103.5-35.5 100-76.5 83T771 508t-135 3zm-5-133q9-7 13-20t0-24q-8-25-35-26t-37 22q-11 27 11.5 45.5T631 378zm198-4q14-14 12-33.5T822 312q-26-13-46.5 6.5T768 364q9 16 28 19.5t33-9.5zM564 54z"/><glyph glyph-name="github" unicode="" d="M63 372q0-145 84-261T364-51q5-2 8.5-2t5.5 1.5 3.5 2.5 2 4.5.5 5V49q-39-5-67 1t-43 19.5T251 95t-12.5 26.5T233 138q-8 13-23.5 24T186 179.5t-2 12.5q44 23 99-58 30-44 104-26 9 36 35 61-101 18-150.5 75.5T222 383q0 76 49 132-19 58 5 120 26 3 57.5-9t44-20.5T399 590q52 14 114 14t113-14q65 49 122 44 23-63 6-119 49-55 49-132 0-82-50-139t-151-75q38-38 38-91V-38l1.5-7.5 4-5L655-53Q790-8 875.5 109T961 372q0 92-35.5 175T830 690t-143.5 95.5T512 821t-174.5-35.5T194 690 98.5 547 63 372z"/><glyph glyph-name="stackoverflow" unicode="" d="M962 272V-66H62v338h112V46h676v226h112zm-731-57h562V103H231v112zm13 122 24 110 550-122-25-110zm64 226 47 102 510-238-47-102zm626-47-69-89-446 342 49 65h52z"/><glyph glyph-name="linkin" unicode="" d="M260-62H69v635h191V-62zm698 0H766v337q0 132-92 132-75 0-96-73V-62H387q2 571 0 635h160V447h3q65 106 188 106 104 0 158-64 62-71 62-191V-62zM263 731q0-40-29-68t-69.5-28T95 663t-29 67.5T95 798t69.5 28 69.5-28 29-67z"/><glyph glyph-name="email" unicode="" d="M872 564 512 339 152 564v90l360-225 360 225v-90zm0 180H152q-37 0-63.5-26.5T62 654V114q0-37 26.5-63.5T152 24h720q37 0 63.5 26.5T962 114v540q0 37-26.5 63.5T872 744z"/><glyph glyph-name="tag" unicode="" d="M945 444 804 669q-15 24-40.5 38T709 721H174q-46 0-79-32.5T62 609V159q0-47 33-80t79-33h535q29 0 54.5 14.5T804 99l141 225q17 28 17 60t-17 60zm-48-90L757 129q-17-26-48-26H174q-23 0-39.5 16.5T118 159v450q0 23 16.5 39.5T174 665h535q31 0 48-26l140-225q19-30 0-60zM709 468q-35 0-60-24.5T624 384t25-59.5 60-24.5 59.5 24.5T793 384t-24.5 59.5T709 468zm0-140q-23 0-39.5 16.5T653 384t16.5 39.5T709 440t39.5-16.5T765 384t-16.5-39.5T709 328z"/><glyph glyph-name="top" unicode="" d="M496 864h30q-1-10 .5-13.5t6.5-8.5q120-95 160-251-33 1-182 .5t-180 .5q39 143 137 231 2 2 9.5 7.5t12.5 10 6 7.5v6l-.5 6.5.5 3.5zM324 563h377q17-85 15-137-2-51-20-132-23-105-63-241H394q-33 93-65 239-36 163-6 268 0 3 1 3zm115-114q-12-39 10.5-70t62.5-31q35 0 58 25 16 18 18 42t-7 44-29.5 32.5T505 502q-51-6-66-53zM151 268v28q11 107 124 139 14-166 68-321-18-26-26.5-39T299 35t-8-55Q163 83 151 267v1zm600 167q75-23 104-76 30-53 11-153-12-68-49-130-39-66-84-95 2 54-34 109-2 3-6.5 8.5t-7.5 9-3 6.5 2 9.5 5.5 15T694 150q44 142 56 283l1 2zM426 24h172q-5-10-17-29.5T564-36q-6 4-14 12.5T538-12q-5-14-14-42t-12-40q-7 16-18.5 46T480-12q-5-7-12.5-22.5T458-54q-8 18-32 78zm0 0z"/><glyph glyph-name="segmentfault" unicode="" d="M123 124q71-65 144-65 32 0 56 15.5t24 46.5q0 14-6 24.5t-19.5 19T296 178t-35 14-37 15q-65 28-99.5 64T90 371q0 86 61 129.5T309 544q113 0 188-48v-14l-48-94q-55 42-127 42-33 0-52-13.5T251 378q0-11 5-20t11-15 19-12.5 22.5-10 29-10.5 30.5-11q74-29 109-65t35-103q0-90-62.5-134.5T284-48Q165-48 73 22v14l50 88zM656-47q0 113 3 450-32-1-75-1l1 121q42 0 73-1 0 2-1 54t-1 53q0 97 49.5 141.5T838 815q72 0 135-26v-18l-35-96q-29 17-60 17-27 0-41-18t-14-63q0-12 1-50.5l1-38.5q35 1 113 1l-1-121q-78 0-114 1 3-112 3-450H656z"/><glyph glyph-name="bilibili" unicode="" d="M217 270q48 3 50 3 118 2 207-34 57-23 92-50 33-25 18-71-9-26-37-48-70-55-128-74-50-16-102-24-28-5-138-15-1-1-13.5-.5T151-43q-6 0-6 7-3 53-4 63-4 44-9 81-4 38-13 113-2 13-5 37t-5.5 43.5T104 339q-1 10-6 51.5T90 455L72 587q-11 82-30 154-2 7 3 8 25 10 71 28.5t63 24.5q11 5 13.5 4t2.5-15q0-148 2-239 1-65 5-124 1-15 13-152 0-2 2-6zm89-231q52 39 121 92-3 6-62.5 29T285 188q4-29 21-149zm0 0zm460 16q-2 23-10 104.5T745 273t-11 102.5-14 114-15 102T686 702q35 5 40 5 9 1 25 2t22 1q10 1 14-2t5-13q1-17 3.5-51t3.5-51q3-50 10-139 0-11 1.5-31t2.5-37 3-32q2-34 9-108 6-69 7-81 2-13 3.5-27.5t3-32T841 78q3-24 3-25 0-5-7-4-21 2-71 6zm0 0zM574 366q50 7 55 7 7 1 20.5 2t18.5 1q11 1 13-8 6-41 8-56 2-18 5.5-51.5T699 219q5-51 9-81 0-1 11-86 0-5 1-14t2-13q-42-5-80-10-13 67-37 189.5T574 366zm0 0zM979 6h-75q-1 0-3.5 2t-2.5 4q-2 22-10 118l-10 109q-2 19-5.5 56.5T868 352q-1 2-1 5 0 2-1 3 24 3 27 3 24 0 71-2 9 0 10-9 2-29 2-36V150q0-20 .5-42t1-49 1.5-42V6zm0 0zM626 416q-3 27-9.5 77.5T609 551q5 0 20.5.5t23.5.5q7 0 8-8 4-43 12-125-14-1-47-3zm0 0zm297 122q4 0 12 .5t14.5.5 12.5-1q10 0 10-10V404q-42 2-49 2v132zm0 0zM570 407l-12 66-12 66q34 5 43 6 5 1 5-6l1-2q1-9 2.5-24.5T599 493q5-45 8-70v-9q-4-1-37-7zm0 0zm287 131h40q5 0 7-1.5t1-6.5q0-5 1-55v-69q-4 0-17.5-1.5T868 402q-2 22-5.5 67t-5.5 69zm0 0z"/><glyph glyph-name="arror-right" unicode="" d="M701 370 353 23q-6-6-14.5-6T324 23t-6 14.5 6 14.5l332 332-333 332q-6 6-6 14.5t6 14.5 14.5 6 14.5-6l343-343q4-1 6-3 6-6 6-14.5t-6-14.5z"/><glyph glyph-name="arror-left" unicode="" d="m323 370 1-1L671 23q6-6 14.5-6t14.5 6 6 14.5-6 14.5L368 384l333 332q6 6 6 14.5t-6 14.5-14.5 6-14.5-6L329 403q-4-2-6-4-6-6-6-14.5t6-14.5z"/><glyph glyph-name="category" unicode="" d="M865 694h-93v18q0 8-6 14t-15 6H643q-9 36-35 63-39 39-94 39-54 0-94-39-27-27-35-63H276q-8 0-14-5.5t-6-14.5v-18h-93q-14 0-23.5-10t-9.5-24V-32q0-14 9.5-24T163-66h702q14 0 23.5 10t9.5 24v692q0 14-9.5 24T865 694zm-416 72q26 27 65 27t65-27q15-14 22-34H427q7 20 22 34zm-152-74h434v-64H297v64zM831 2H197v624h59v-18q0-9 6-15t14-6h475q9 0 15 6t6 15v18h59V2zM316 337q-14 0-24-10t-10-24 10-24 24-10 24 10 10 24-10 24-24 10zm0-143q-14 0-24-10t-10-24 10-23.5 24-9.5 24 9.5 10 23.5-10 24-24 10zm395 273H417q-9 0-14.5-6.5T397 446t5.5-14 14.5-6h294q8 0 14 6t6 14-6 14.5-14 6.5zm-395 13q-14 0-24-10t-10-24 10-24 24-10 24 10 10 24-10 24-24 10zm395-299H417q-9 0-14.5-6t-5.5-14.5 5.5-14.5 14.5-6h294q8 0 14 6t6 14.5-6 14.5-14 6zm0 143H417q-9 0-14.5-6t-5.5-15q0-8 5.5-14t14.5-6h294q8 0 14 6t6 14q0 9-6 15t-14 6z"/><glyph glyph-name="disqus" unicode="" d="M516-71Q350-71 223 37L30 10l75 185q-41 94-41 189 0 92 36 176.5T196.5 706t144 97 175 36T691 803t144.5-97 96-145.5T967 384t-35.5-176.5-96-145.5T691-35 516-71zm246 456v2q0 100-67.5 162.5T510 612H337V156h170q118 0 186.5 64T762 385zM512 268h-51v232h51q56 0 89.5-31t33.5-85q0-55-33.5-85.5T512 268z"/><glyph glyph-name="flickr" unicode="" d="M793 834q70 0 119.5-49.5T962 665V103q0-70-49.5-119.5T793-66H231q-70 0-119.5 49.5T62 103v562q0 70 49.5 119.5T231 834h562zM471 383.5q0 51.5-36.5 88t-88 36.5-87.5-36.5-36-88 36-87.5 87.5-36 88 36 36.5 87.5zm330 0q0 51.5-36 88T677.5 508t-88-36.5-36.5-88 36.5-87.5 88-36 87.5 36 36 87.5zm0 .5z"/><glyph glyph-name="website" unicode="" d="M506-54q-90 0-172.5 35t-142 94.5-94.5 142T62 390t35 172.5 94.5 142 142 94.5T506 834t172.5-35 142-94.5 94.5-142T950 390t-35-172.5-94.5-142-142-94.5T506-54zm0 825q-103 0-191-51T176 581t-51-191.5 51-191T315 60 506 9t191 51 139 138.5 51 191T836 581 697 720t-191 51zm182-596-10-6-31-19-18-13q-18-9-41-16v18l-5 41q-3 24-6 31-8 13-22 19l-7.5 2.5-7.5 3-5 4.5q-3 3-7.5 13t-7.5 14q-14 23-14 26v56l6 48 14 11 17 18 11 4 39-7h28l11-24 27-22 16-26 21-8h24l17-20 10-22 4-15v-25l-3-15q-24-40-60-71zm-97 436-28-15-10-30-17-15h-54l-25-10-1-20-11-16-2-18 5-15 6-15q15-18 0-31-19 0-22 7-3 3-19 15t-18 14-7.5 4.5-9.5 3.5l-4 2-21 7-19 2 2 26-2 23-7 16-22 17-1 17 3 10q82 82 199 82 62 0 122-28l-1-7-37-26h1z"/></font>
</defs>
</svg>
